<?xml version="1.0" encoding="UTF-8"?>
<svg version="1.1" xmlns="http://www.w3.org/2000/svg" width="368" height="371">
<path d="M0 0 C2.31 1.98 4.62 3.96 7 6 C6.67350026 11.38724572 3.53259053 14.27209797 0 18 C-0.7115625 18.77150391 -0.7115625 18.77150391 -1.4375 19.55859375 C-2.57583967 20.75452799 -3.78289714 21.88432238 -5 23 C-5.66 23 -6.32 23 -7 23 C-7 23.66 -7 24.32 -7 25 C-8.6796875 26.62109375 -8.6796875 26.62109375 -10.875 28.4375 C-13.46193722 30.58400884 -15.11184374 32.16776562 -17 35 C-17.66 35 -18.32 35 -19 35 C-19 35.66 -19 36.32 -19 37 C-20.609375 38.55078125 -20.609375 38.55078125 -22.75 40.3125 C-25.95429436 42.95307591 -28.4381831 45.73539267 -31 49 C-30.32831787 49.64026123 -29.65663574 50.28052246 -28.96459961 50.94018555 C-26.47946928 53.32305424 -24.00843083 55.7188739 -21.5456543 58.12475586 C-20.47709054 59.16314611 -19.40320387 60.19608783 -18.32397461 61.22338867 C-16.77326196 62.70131131 -15.24276253 64.19778723 -13.71484375 65.69921875 C-12.78792725 66.59471436 -11.86101074 67.49020996 -10.90600586 68.4128418 C-9 71 -9 71 -9.20532227 73.83129883 C-9.46756592 74.54697021 -9.72980957 75.2626416 -10 76 C-10.66 76 -11.32 76 -12 76 C-12 76.66 -12 77.32 -12 78 C-14.375 80.625 -14.375 80.625 -17 83 C-17.66 83 -18.32 83 -19 83 C-19 83.66 -19 84.32 -19 85 C-20.375 86.625 -20.375 86.625 -22 88 C-22.66 88 -23.32 88 -24 88 C-24 88.66 -24 89.32 -24 90 C-25.6796875 91.62109375 -25.6796875 91.62109375 -27.875 93.4375 C-30.46193722 95.58400884 -32.11184374 97.16776562 -34 100 C-34.66 100 -35.32 100 -36 100 C-36 100.66 -36 101.32 -36 102 C-37.375 103.625 -37.375 103.625 -39 105 C-39.66 105 -40.32 105 -41 105 C-41 105.66 -41 106.32 -41 107 C-43.375 109.625 -43.375 109.625 -46 112 C-46.66 112 -47.32 112 -48 112 C-48 112.66 -48 113.32 -48 114 C-49.375 115.625 -49.375 115.625 -51 117 C-51.66 117 -52.32 117 -53 117 C-53 117.66 -53 118.32 -53 119 C-54.6796875 120.62109375 -54.6796875 120.62109375 -56.875 122.4375 C-59.46193722 124.58400884 -61.11184374 126.16776562 -63 129 C-63.66 129 -64.32 129 -65 129 C-65 129.66 -65 130.32 -65 131 C-66.6796875 132.62109375 -66.6796875 132.62109375 -68.875 134.4375 C-71.46193722 136.58400884 -73.11184374 138.16776562 -75 141 C-75.66 141 -76.32 141 -77 141 C-77 141.66 -77 142.32 -77 143 C-78.375 144.625 -78.375 144.625 -80 146 C-80.66 146 -81.32 146 -82 146 C-82 146.66 -82 147.32 -82 148 C-83.6796875 149.62109375 -83.6796875 149.62109375 -85.875 151.4375 C-88.46193722 153.58400884 -90.11184374 155.16776562 -92 158 C-92.66 158 -93.32 158 -94 158 C-94 158.66 -94 159.32 -94 160 C-95.6796875 161.62109375 -95.6796875 161.62109375 -97.875 163.4375 C-100.46193722 165.58400884 -102.11184374 167.16776562 -104 170 C-104.66 170 -105.32 170 -106 170 C-106 170.66 -106 171.32 -106 172 C-107.375 173.625 -107.375 173.625 -109 175 C-109.66 175 -110.32 175 -111 175 C-111 175.66 -111 176.32 -111 177 C-113.375 179.625 -113.375 179.625 -116 182 C-116.66 182 -117.32 182 -118 182 C-118 182.66 -118 183.32 -118 184 C-118.66 184.66 -119.32 185.32 -120 186 C-119.42701392 186.56745532 -118.85402784 187.13491064 -118.26367855 187.71956158 C-104.33543265 201.51541563 -90.42374067 215.32776067 -76.5303793 229.15874767 C-69.81129946 235.8468635 -63.08669223 242.5292412 -56.34887695 249.19848633 C-50.47756101 255.01007864 -44.61679805 260.83207135 -38.76856953 266.6668995 C-35.67034653 269.7572869 -32.56702518 272.84213935 -29.45101738 275.91460228 C-26.52014379 278.80484648 -23.60355443 281.70875715 -20.69745255 284.62390137 C-19.62671004 285.69298891 -18.55078906 286.75691797 -17.46946526 287.8153019 C-15.99668657 289.25834509 -14.54345762 290.71858789 -13.09373474 292.18473816 C-12.27426078 292.99868136 -11.45478682 293.81262457 -10.61048031 294.65123272 C-9 297 -9 297 -9.24414158 299.80095387 C-9.49357486 300.52663909 -9.74300814 301.25232431 -10 302 C-10.66 302 -11.32 302 -12 302 C-12 302.66 -12 303.32 -12 304 C-13.375 305.625 -13.375 305.625 -15 307 C-15.66 307 -16.32 307 -17 307 C-17 307.66 -17 308.32 -17 309 C-18.375 310.625 -18.375 310.625 -20 312 C-20.66 312 -21.32 312 -22 312 C-22 312.66 -22 313.32 -22 314 C-22.66 314 -23.32 314 -24 314 C-24 314.66 -24 315.32 -24 316 C-25.375 317.625 -25.375 317.625 -27 319 C-27.66 319 -28.32 319 -29 319 C-29 319.66 -29 320.32 -29 321 C-29.66 321.66 -30.32 322.32 -31 323 C-30.52171249 323.46496384 -30.04342499 323.92992767 -29.55064392 324.40898132 C-24.58568542 329.24143082 -19.64179129 334.09469114 -14.7097168 338.96069336 C-12.86512956 340.77506542 -11.01519908 342.58402157 -9.15991211 344.38745117 C-6.49738423 346.97738407 -3.85454136 349.58604634 -1.21484375 352.19921875 C-0.37847885 353.00461594 0.45788605 353.81001312 1.31959534 354.63981628 C2.08045944 355.4002272 2.84132355 356.16063812 3.62524414 356.9440918 C4.64117393 357.94003609 4.64117393 357.94003609 5.67762756 358.95610046 C7 361 7 361 6.87107849 363.57771301 C5.6761936 366.90043783 3.59481685 368.67131821 1 371 C-4.21364209 366.64550322 -9.05963491 362.06115347 -13.83203125 357.23046875 C-14.9087635 356.14805656 -14.9087635 356.14805656 -16.00724792 355.04377747 C-18.27812372 352.76077821 -20.54570432 350.47455 -22.8125 348.1875 C-25.81616214 345.15730988 -28.82307668 342.13040252 -31.83203125 339.10546875 C-32.52158401 338.40761765 -33.21113678 337.70976654 -33.92158508 336.99076843 C-34.87849495 336.02890373 -34.87849495 336.02890373 -35.85473633 335.04760742 C-36.41542313 334.48168381 -36.97610992 333.91576019 -37.55378723 333.33268738 C-38.98089403 331.89403619 -38.98089403 331.89403619 -41 331 C-41 331.66 -41 332.32 -41 333 C-42.375 334.625 -42.375 334.625 -44 336 C-44.66 336 -45.32 336 -46 336 C-46 336.66 -46 337.32 -46 338 C-46.66 338 -47.32 338 -48 338 C-48.33 338.99 -48.66 339.98 -49 341 C-49.66 341 -50.32 341 -51 341 C-51 341.66 -51 342.32 -51 343 C-51.66 343 -52.32 343 -53 343 C-53 343.66 -53 344.32 -53 345 C-54.375 346.625 -54.375 346.625 -56 348 C-56.66 348 -57.32 348 -58 348 C-58 348.66 -58 349.32 -58 350 C-59.375 351.625 -59.375 351.625 -61 353 C-61.66 353 -62.32 353 -63 353 C-63.33 353.66 -63.66 354.32 -64 355 C-64.57537443 354.42278198 -65.15074886 353.84556396 -65.74355888 353.25085449 C-79.72509767 339.22520336 -93.71212712 325.20504885 -107.70533562 311.19104004 C-114.4721293 304.41392088 -121.23703187 297.63493377 -127.99755859 290.8515625 C-133.88801864 284.94120741 -139.78195122 279.0343416 -145.68013203 273.13169098 C-148.80487094 270.00433809 -151.92780774 266.87523105 -155.04659653 263.74194336 C-157.97904556 260.79597173 -160.91609654 257.85466998 -163.85682297 254.91696167 C-164.93815447 253.8350776 -166.01775884 252.75146425 -167.09554291 251.66604614 C-168.56166101 250.19005001 -170.03373495 248.72026987 -171.50753784 247.25195312 C-172.33162077 246.42602661 -173.1557037 245.6001001 -174.00475883 244.74914551 C-175.80842049 242.78026309 -175.80842049 242.78026309 -178 243 C-178.33 243.66 -178.66 244.32 -179 245 C-179.66 245 -180.32 245 -181 245 C-181 245.66 -181 246.32 -181 247 C-183.375 249.625 -183.375 249.625 -186 252 C-186.66 252 -187.32 252 -188 252 C-188 252.66 -188 253.32 -188 254 C-189.375 255.625 -189.375 255.625 -191 257 C-191.66 257 -192.32 257 -193 257 C-193 257.66 -193 258.32 -193 259 C-194.6796875 260.62109375 -194.6796875 260.62109375 -196.875 262.4375 C-199.46193722 264.58400884 -201.11184374 266.16776562 -203 269 C-203.66 269 -204.32 269 -205 269 C-205 269.66 -205 270.32 -205 271 C-206.375 272.625 -206.375 272.625 -208 274 C-208.66 274 -209.32 274 -210 274 C-210 274.66 -210 275.32 -210 276 C-212.375 278.625 -212.375 278.625 -215 281 C-215.66 281 -216.32 281 -217 281 C-217 281.66 -217 282.32 -217 283 C-218.375 284.625 -218.375 284.625 -220 286 C-220.66 286 -221.32 286 -222 286 C-222 286.66 -222 287.32 -222 288 C-223.6796875 289.62109375 -223.6796875 289.62109375 -225.875 291.4375 C-228.46193722 293.58400884 -230.11184374 295.16776562 -232 298 C-232.66 298 -233.32 298 -234 298 C-234 298.66 -234 299.32 -234 300 C-235.6796875 301.62109375 -235.6796875 301.62109375 -237.875 303.4375 C-240.46193722 305.58400884 -242.11184374 307.16776562 -244 310 C-244.66 310 -245.32 310 -246 310 C-246 310.66 -246 311.32 -246 312 C-247.375 313.625 -247.375 313.625 -249 315 C-249.66 315 -250.32 315 -251 315 C-251 315.66 -251 316.32 -251 317 C-253.375 319.625 -253.375 319.625 -256 322 C-256.66 322 -257.32 322 -258 322 C-258 322.66 -258 323.32 -258 324 C-259.375 325.625 -259.375 325.625 -261 327 C-261.66 327 -262.32 327 -263 327 C-263 327.66 -263 328.32 -263 329 C-264.6796875 330.62109375 -264.6796875 330.62109375 -266.875 332.4375 C-269.46193722 334.58400884 -271.11184374 336.16776562 -273 339 C-273.66 339 -274.32 339 -275 339 C-275 339.66 -275 340.32 -275 341 C-276.375 342.625 -276.375 342.625 -278 344 C-278.66 344 -279.32 344 -280 344 C-280 344.66 -280 345.32 -280 346 C-282.375 348.625 -282.375 348.625 -285 351 C-285.66 351 -286.32 351 -287 351 C-287 351.66 -287 352.32 -287 353 C-287.99 353.33 -288.98 353.66 -290 354 C-297.59 346.41 -305.18 338.82 -313 331 C-313.99 331.33 -314.98 331.66 -316 332 C-316 332.66 -316 333.32 -316 334 C-317.6796875 335.62109375 -317.6796875 335.62109375 -319.875 337.4375 C-322.46193722 339.58400884 -324.11184374 341.16776562 -326 344 C-326.66 344 -327.32 344 -328 344 C-328 344.66 -328 345.32 -328 346 C-329.57421875 347.55078125 -329.57421875 347.55078125 -331.6875 349.3125 C-335.91124574 352.90829062 -339.90497012 356.35745518 -343 361 C-343.66 361 -344.32 361 -345 361 C-345 361.66 -345 362.32 -345 363 C-346.75 364.7265625 -346.75 364.7265625 -349 366.625 C-350.11375 367.57246094 -350.11375 367.57246094 -351.25 368.5390625 C-351.8275 369.02117187 -352.405 369.50328125 -353 370 C-354.17825358 369.09827532 -355.34231577 368.17798498 -356.5 367.25 C-357.1496875 366.73953125 -357.799375 366.2290625 -358.46875 365.703125 C-360 364 -360 364 -360 360 C-359.67 359.34 -359.34 358.68 -359 358 C-358.34 358 -357.68 358 -357 358 C-357 357.34 -357 356.68 -357 356 C-355.625 354.375 -355.625 354.375 -354 353 C-353.34 353 -352.68 353 -352 353 C-352 352.34 -352 351.68 -352 351 C-350.625 349.375 -350.625 349.375 -349 348 C-348.34 348 -347.68 348 -347 348 C-347 347.34 -347 346.68 -347 346 C-346.34 346 -345.68 346 -345 346 C-345 345.34 -345 344.68 -345 344 C-343.625 342.375 -343.625 342.375 -342 341 C-341.34 341 -340.68 341 -340 341 C-340 340.34 -340 339.68 -340 339 C-338.625 337.375 -338.625 337.375 -337 336 C-336.34 336 -335.68 336 -335 336 C-335 335.34 -335 334.68 -335 334 C-332.625 331.375 -332.625 331.375 -330 329 C-329.34 329 -328.68 329 -328 329 C-328 328.34 -328 327.68 -328 327 C-326.625 325.375 -326.625 325.375 -325 324 C-324.34 324 -323.68 324 -323 324 C-323.50441266 319.81542151 -325.74359574 317.97825551 -328.7265625 315.15625 C-329.6753125 314.23972656 -330.6240625 313.32320313 -331.6015625 312.37890625 C-333.11620021 310.93275737 -334.63462322 309.49092537 -336.15820312 308.05419922 C-337.6289761 306.66170932 -339.08428463 305.25294219 -340.5390625 303.84375 C-341.41771973 303.01037109 -342.29637695 302.17699219 -343.20166016 301.31835938 C-345 299 -345 299 -344.77880859 296.69726562 C-344.52180176 296.13716797 -344.26479492 295.57707031 -344 295 C-343.34 295 -342.68 295 -342 295 C-342 294.34 -342 293.68 -342 293 C-341.34 293 -340.68 293 -340 293 C-340 292.34 -340 291.68 -340 291 C-338.625 289.375 -338.625 289.375 -337 288 C-336.34 288 -335.68 288 -335 288 C-335 287.34 -335 286.68 -335 286 C-333.625 284.375 -333.625 284.375 -332 283 C-331.34 283 -330.68 283 -330 283 C-330 282.34 -330 281.68 -330 281 C-329.34 281 -328.68 281 -328 281 C-328 280.34 -328 279.68 -328 279 C-326.625 277.375 -326.625 277.375 -325 276 C-324.34 276 -323.68 276 -323 276 C-323 275.34 -323 274.68 -323 274 C-321.625 272.375 -321.625 272.375 -320 271 C-319.34 271 -318.68 271 -318 271 C-318 270.34 -318 269.68 -318 269 C-317.34 269 -316.68 269 -316 269 C-316 268.34 -316 267.68 -316 267 C-314.625 265.375 -314.625 265.375 -313 264 C-312.34 264 -311.68 264 -311 264 C-311 263.34 -311 262.68 -311 262 C-309.625 260.375 -309.625 260.375 -308 259 C-307.34 259 -306.68 259 -306 259 C-306 258.34 -306 257.68 -306 257 C-304.625 255.375 -304.625 255.375 -303 254 C-302.34 254 -301.68 254 -301 254 C-301 253.34 -301 252.68 -301 252 C-300.34 252 -299.68 252 -299 252 C-299 251.34 -299 250.68 -299 250 C-297.625 248.375 -297.625 248.375 -296 247 C-295.34 247 -294.68 247 -294 247 C-294 246.34 -294 245.68 -294 245 C-292.625 243.375 -292.625 243.375 -291 242 C-290.34 242 -289.68 242 -289 242 C-289 241.34 -289 240.68 -289 240 C-288.34 240 -287.68 240 -287 240 C-287 239.34 -287 238.68 -287 238 C-285.625 236.375 -285.625 236.375 -284 235 C-283.34 235 -282.68 235 -282 235 C-282 234.34 -282 233.68 -282 233 C-280.625 231.375 -280.625 231.375 -279 230 C-278.34 230 -277.68 230 -277 230 C-277 229.34 -277 228.68 -277 228 C-276.34 228 -275.68 228 -275 228 C-274.67 227.01 -274.34 226.02 -274 225 C-273.34 225 -272.68 225 -272 225 C-272 224.34 -272 223.68 -272 223 C-271.34 223 -270.68 223 -270 223 C-270 222.34 -270 221.68 -270 221 C-268.625 219.375 -268.625 219.375 -267 218 C-266.34 218 -265.68 218 -265 218 C-265 217.34 -265 216.68 -265 216 C-263.625 214.375 -263.625 214.375 -262 213 C-261.34 213 -260.68 213 -260 213 C-260 212.34 -260 211.68 -260 211 C-259.34 211 -258.68 211 -258 211 C-258 210.34 -258 209.68 -258 209 C-256.625 207.375 -256.625 207.375 -255 206 C-254.34 206 -253.68 206 -253 206 C-253 205.34 -253 204.68 -253 204 C-251.625 202.375 -251.625 202.375 -250 201 C-249.34 201 -248.68 201 -248 201 C-248 200.34 -248 199.68 -248 199 C-247.34 199 -246.68 199 -246 199 C-246 198.34 -246 197.68 -246 197 C-244.625 195.375 -244.625 195.375 -243 194 C-242.34 194 -241.68 194 -241 194 C-241 193.34 -241 192.68 -241 192 C-239.625 190.375 -239.625 190.375 -238 189 C-237.34 189 -236.68 189 -236 189 C-236 188.34 -236 187.68 -236 187 C-235.34 186.34 -234.68 185.68 -234 185 C-234.57206429 184.43070109 -235.14412857 183.86140219 -235.73352814 183.2748518 C-249.63686231 169.43770001 -263.53193768 155.59230512 -277.41780853 141.73762798 C-284.1330435 135.03787806 -290.85107002 128.34097231 -297.57568359 121.65063477 C-303.43517151 115.82099912 -309.28941047 109.98615262 -315.13734198 104.14492351 C-318.23547504 101.05070978 -321.33621638 97.95921336 -324.44325256 94.87393761 C-327.36512949 91.97235991 -330.27995849 89.06388863 -333.18943977 86.14988327 C-334.26077238 85.07937882 -335.33469564 84.01146008 -336.41132927 82.94628716 C-337.8765487 81.4959091 -339.33231607 80.03666815 -340.78601074 78.57475281 C-342.013839 77.35107262 -342.013839 77.35107262 -343.26647186 76.10267162 C-345 74 -345 74 -345 71 C-343.625 69.3125 -343.625 69.3125 -342 68 C-341.34 68 -340.68 68 -340 68 C-340 67.34 -340 66.68 -340 66 C-338.625 64.375 -338.625 64.375 -337 63 C-336.34 63 -335.68 63 -335 63 C-335 62.34 -335 61.68 -335 61 C-332.625 58.375 -332.625 58.375 -330 56 C-329.34 56 -328.68 56 -328 56 C-328 55.34 -328 54.68 -328 54 C-326.625 52.375 -326.625 52.375 -325 51 C-324.34 51 -323.68 51 -323 51 C-323.57687324 47.37725108 -324.91052193 45.73416717 -327.51000977 43.19702148 C-328.6210482 42.10084755 -328.6210482 42.10084755 -329.75453186 40.98252869 C-330.55870041 40.20325516 -331.36286896 39.42398163 -332.19140625 38.62109375 C-333.01124496 37.8126149 -333.83108368 37.00413605 -334.67576599 36.17115784 C-337.29763055 33.58598519 -339.92885252 31.01066456 -342.5625 28.4375 C-346.03062229 25.04886537 -349.48893819 21.65066777 -352.94140625 18.24609375 C-353.74759903 17.46479599 -354.55379181 16.68349823 -355.38441467 15.87852478 C-356.1219548 15.15089432 -356.85949493 14.42326385 -357.61938477 13.67358398 C-358.27366959 13.03500961 -358.92795441 12.39643524 -359.60206604 11.73851013 C-361 10 -361 10 -361 7 C-360.34 7 -359.68 7 -359 7 C-358.7525 6.195625 -358.505 5.39125 -358.25 4.5625 C-357 2 -357 2 -355.17401123 1.1231842 C-353 1 -353 1 -351.03839111 2.3603363 C-350.01246857 3.40291344 -350.01246857 3.40291344 -348.96582031 4.46655273 C-348.18531311 5.24743759 -347.40480591 6.02832245 -346.60064697 6.83287048 C-345.76821472 7.69110916 -344.93578247 8.54934784 -344.078125 9.43359375 C-343.21813904 10.30065445 -342.35815308 11.16771515 -341.47210693 12.06105042 C-338.7194929 14.84172331 -335.98473395 17.63925119 -333.25 20.4375 C-331.39047077 22.32209681 -329.52980775 24.20557565 -327.66796875 26.08789062 C-323.09872871 30.71235301 -318.54404317 35.3507839 -314 40 C-313.01 39.67 -312.02 39.34 -311 39 C-311 38.34 -311 37.68 -311 37 C-308.625 34.375 -308.625 34.375 -306 32 C-305.34 32 -304.68 32 -304 32 C-304 31.34 -304 30.68 -304 30 C-302.625 28.375 -302.625 28.375 -301 27 C-300.34 27 -299.68 27 -299 27 C-299 26.34 -299 25.68 -299 25 C-297.625 23.375 -297.625 23.375 -296 22 C-295.34 22 -294.68 22 -294 22 C-294 21.34 -294 20.68 -294 20 C-291.5 18.375 -291.5 18.375 -289 17 C-288.4297793 17.57114249 -287.8595586 18.14228498 -287.27205849 18.73073483 C-273.41283904 32.61201507 -259.55087016 46.49054413 -245.68581581 60.36599636 C-238.980917 67.07605684 -232.27696041 73.7870537 -225.57519531 80.50024414 C-219.73560906 86.34978114 -213.89428163 92.19757273 -208.05083501 98.04325348 C-204.95533615 101.14005878 -201.86073096 104.23774563 -198.76820755 107.33752251 C-195.85988154 110.25261488 -192.94924056 113.16537513 -190.03677559 116.07633209 C-188.96599887 117.14738486 -187.89608459 118.21930061 -186.82708168 119.29212379 C-185.37184178 120.75231053 -183.91358233 122.20941224 -182.45449829 123.66575623 C-181.63778971 124.4833866 -180.82108112 125.30101698 -179.97962379 126.14342403 C-178.13274296 128.05264994 -178.13274296 128.05264994 -176 129 C-175.67 128.01 -175.34 127.02 -175 126 C-174.34 126 -173.68 126 -173 126 C-173 125.34 -173 124.68 -173 124 C-172.34 124 -171.68 124 -171 124 C-171 123.34 -171 122.68 -171 122 C-169.625 120.375 -169.625 120.375 -168 119 C-167.34 119 -166.68 119 -166 119 C-166 118.34 -166 117.68 -166 117 C-164.625 115.375 -164.625 115.375 -163 114 C-162.34 114 -161.68 114 -161 114 C-161 113.34 -161 112.68 -161 112 C-160.34 112 -159.68 112 -159 112 C-159 111.34 -159 110.68 -159 110 C-157.625 108.375 -157.625 108.375 -156 107 C-155.34 107 -154.68 107 -154 107 C-154 106.34 -154 105.68 -154 105 C-152.625 103.375 -152.625 103.375 -151 102 C-150.34 102 -149.68 102 -149 102 C-149 101.34 -149 100.68 -149 100 C-148.34 100 -147.68 100 -147 100 C-147 99.34 -147 98.68 -147 98 C-145.625 96.375 -145.625 96.375 -144 95 C-143.34 95 -142.68 95 -142 95 C-142 94.34 -142 93.68 -142 93 C-140.625 91.375 -140.625 91.375 -139 90 C-138.34 90 -137.68 90 -137 90 C-137 89.34 -137 88.68 -137 88 C-136.34 88 -135.68 88 -135 88 C-134.67 87.01 -134.34 86.02 -134 85 C-133.34 85 -132.68 85 -132 85 C-132 84.34 -132 83.68 -132 83 C-131.34 83 -130.68 83 -130 83 C-130 82.34 -130 81.68 -130 81 C-128.625 79.375 -128.625 79.375 -127 78 C-126.34 78 -125.68 78 -125 78 C-125 77.34 -125 76.68 -125 76 C-123.625 74.375 -123.625 74.375 -122 73 C-121.34 73 -120.68 73 -120 73 C-120 72.34 -120 71.68 -120 71 C-119.34 71 -118.68 71 -118 71 C-118 70.34 -118 69.68 -118 69 C-116.625 67.375 -116.625 67.375 -115 66 C-114.34 66 -113.68 66 -113 66 C-113 65.34 -113 64.68 -113 64 C-111.625 62.375 -111.625 62.375 -110 61 C-109.34 61 -108.68 61 -108 61 C-108 60.34 -108 59.68 -108 59 C-107.34 59 -106.68 59 -106 59 C-105.67 58.01 -105.34 57.02 -105 56 C-104.34 56 -103.68 56 -103 56 C-103 55.34 -103 54.68 -103 54 C-102.34 54 -101.68 54 -101 54 C-101 53.34 -101 52.68 -101 52 C-99.625 50.375 -99.625 50.375 -98 49 C-97.34 49 -96.68 49 -96 49 C-96 48.34 -96 47.68 -96 47 C-94.625 45.375 -94.625 45.375 -93 44 C-92.34 44 -91.68 44 -91 44 C-91 43.34 -91 42.68 -91 42 C-90.34 42 -89.68 42 -89 42 C-89 41.34 -89 40.68 -89 40 C-87.625 38.375 -87.625 38.375 -86 37 C-85.34 37 -84.68 37 -84 37 C-84 36.34 -84 35.68 -84 35 C-82.625 33.375 -82.625 33.375 -81 32 C-80.34 32 -79.68 32 -79 32 C-79 31.34 -79 30.68 -79 30 C-78.34 30 -77.68 30 -77 30 C-77 29.34 -77 28.68 -77 28 C-75.625 26.375 -75.625 26.375 -74 25 C-73.34 25 -72.68 25 -72 25 C-72 24.34 -72 23.68 -72 23 C-70.625 21.375 -70.625 21.375 -69 20 C-68.34 20 -67.68 20 -67 20 C-67 19.34 -67 18.68 -67 18 C-65.31860352 17.20532227 -65.31860352 17.20532227 -63 17 C-60.57397461 18.90600586 -60.57397461 18.90600586 -57.90234375 21.71484375 C-57.42680557 22.20457169 -56.9512674 22.69429962 -56.46131897 23.1988678 C-54.94103603 24.76705307 -53.43833616 26.3507097 -51.9375 27.9375 C-50.43146486 29.51892092 -48.92198034 31.09645553 -47.40296936 32.66542053 C-46.02525006 34.08988777 -44.66061804 35.52697784 -43.29663086 36.96459961 C-41.13726851 39.33163097 -41.13726851 39.33163097 -38 39 C-38 38.34 -38 37.68 -38 37 C-37.34 37 -36.68 37 -36 37 C-36 36.34 -36 35.68 -36 35 C-34.625 33.375 -34.625 33.375 -33 32 C-32.34 32 -31.68 32 -31 32 C-31 31.34 -31 30.68 -31 30 C-29.625 28.375 -29.625 28.375 -28 27 C-27.34 27 -26.68 27 -26 27 C-26 26.34 -26 25.68 -26 25 C-23.625 22.375 -23.625 22.375 -21 20 C-20.34 20 -19.68 20 -19 20 C-19 19.34 -19 18.68 -19 18 C-17.625 16.375 -17.625 16.375 -16 15 C-15.34 15 -14.68 15 -14 15 C-14 14.34 -14 13.68 -14 13 C-12.625 11.375 -12.625 11.375 -11 10 C-10.34 10 -9.68 10 -9 10 C-9 9.34 -9 8.68 -9 8 C-8.34 8 -7.68 8 -7 8 C-7 7.34 -7 6.68 -7 6 C-5.625 4.375 -5.625 4.375 -4 3 C-3.34 3 -2.68 3 -2 3 C-2 2.34 -2 1.68 -2 1 C-1.34 0.67 -0.68 0.34 0 0 Z M-64 32 C-64.33 32.99 -64.66 33.98 -65 35 C-66.33333333 35.66666667 -67.66666667 36.33333333 -69 37 C-69.33 37.99 -69.66 38.98 -70 40 C-71.3153341 40.70151152 -72.65117592 41.36525925 -74 42 C-75.7511573 43.4166747 -75.7511573 43.4166747 -77 45 C-77 45.66 -77 46.32 -77 47 C-77.639375 47.268125 -78.27875 47.53625 -78.9375 47.8125 C-81.33131686 48.88667752 -81.33131686 48.88667752 -82 52 C-83.33333333 52.66666667 -84.66666667 53.33333333 -86 54 C-86.495 55.485 -86.495 55.485 -87 57 C-87.66 57 -88.32 57 -89 57 C-89 57.66 -89 58.32 -89 59 C-89.639375 59.268125 -90.27875 59.53625 -90.9375 59.8125 C-93.33131686 60.88667752 -93.33131686 60.88667752 -94 64 C-95.33333333 64.66666667 -96.66666667 65.33333333 -98 66 C-98.33 66.99 -98.66 67.98 -99 69 C-100.3153341 69.70151152 -101.65117592 70.36525925 -103 71 C-104.7511573 72.4166747 -104.7511573 72.4166747 -106 74 C-106 74.66 -106 75.32 -106 76 C-106.639375 76.268125 -107.27875 76.53625 -107.9375 76.8125 C-110.33131686 77.88667752 -110.33131686 77.88667752 -111 81 C-112.3153341 81.70151152 -113.65117592 82.36525925 -115 83 C-116.7511573 84.4166747 -116.7511573 84.4166747 -118 86 C-118 86.66 -118 87.32 -118 88 C-118.639375 88.268125 -119.27875 88.53625 -119.9375 88.8125 C-122.33131686 89.88667752 -122.33131686 89.88667752 -123 93 C-124.33333333 93.66666667 -125.66666667 94.33333333 -127 95 C-127.33 95.99 -127.66 96.98 -128 98 C-128.66 98 -129.32 98 -130 98 C-130 98.66 -130 99.32 -130 100 C-130.9590625 100.4021875 -130.9590625 100.4021875 -131.9375 100.8125 C-134.33131686 101.88667752 -134.33131686 101.88667752 -135 105 C-136.33333333 105.66666667 -137.66666667 106.33333333 -139 107 C-139.33 107.99 -139.66 108.98 -140 110 C-141.3153341 110.70151152 -142.65117592 111.36525925 -144 112 C-145.7511573 113.4166747 -145.7511573 113.4166747 -147 115 C-147 115.66 -147 116.32 -147 117 C-147.639375 117.268125 -148.27875 117.53625 -148.9375 117.8125 C-151.33131686 118.88667752 -151.33131686 118.88667752 -152 122 C-153.3153341 122.70151152 -154.65117592 123.36525925 -156 124 C-157.7511573 125.4166747 -157.7511573 125.4166747 -159 127 C-159 127.66 -159 128.32 -159 129 C-159.9590625 129.4021875 -159.9590625 129.4021875 -160.9375 129.8125 C-163.33131686 130.88667752 -163.33131686 130.88667752 -164 134 C-166.0625 135.1875 -166.0625 135.1875 -168 136 C-168.31007227 138.9531478 -168.31007227 138.9531478 -166.71484375 140.62573242 C-166.12832031 141.19654541 -165.54179687 141.7673584 -164.9375 142.35546875 C-164.30585938 142.97744141 -163.67421875 143.59941406 -163.0234375 144.24023438 C-162.35570312 144.88283203 -161.68796875 145.52542969 -161 146.1875 C-160.33226562 146.84169922 -159.66453125 147.49589844 -158.9765625 148.16992188 C-157.32421559 149.78686135 -155.66528399 151.39640491 -154 153 C-152.515 152.505 -152.515 152.505 -151 152 C-151 151.34 -151 150.68 -151 150 C-150.34 150 -149.68 150 -149 150 C-149 149.34 -149 148.68 -149 148 C-148.34 148 -147.68 148 -147 148 C-147 147.34 -147 146.68 -147 146 C-145.515 145.505 -145.515 145.505 -144 145 C-144 144.34 -144 143.68 -144 143 C-143.34 143 -142.68 143 -142 143 C-142 142.34 -142 141.68 -142 141 C-140.515 140.505 -140.515 140.505 -139 140 C-139 139.34 -139 138.68 -139 138 C-138.34 138 -137.68 138 -137 138 C-137 137.34 -137 136.68 -137 136 C-136.34 136 -135.68 136 -135 136 C-135 135.34 -135 134.68 -135 134 C-134.01 133.67 -133.02 133.34 -132 133 C-132 132.34 -132 131.68 -132 131 C-131.34 131 -130.68 131 -130 131 C-130 130.34 -130 129.68 -130 129 C-129.01 128.67 -128.02 128.34 -127 128 C-127 127.34 -127 126.68 -127 126 C-126.34 126 -125.68 126 -125 126 C-125 125.34 -125 124.68 -125 124 C-124.0409375 123.5978125 -124.0409375 123.5978125 -123.0625 123.1875 C-120.66868314 122.11332248 -120.66868314 122.11332248 -120 119 C-119.34 119 -118.68 119 -118 119 C-118 118.34 -118 117.68 -118 117 C-117.01 116.67 -116.02 116.34 -115 116 C-115 115.34 -115 114.68 -115 114 C-114.34 114 -113.68 114 -113 114 C-113 113.34 -113 112.68 -113 112 C-112.01 111.67 -111.02 111.34 -110 111 C-110 110.34 -110 109.68 -110 109 C-109.34 109 -108.68 109 -108 109 C-108 108.34 -108 107.68 -108 107 C-107.34 107 -106.68 107 -106 107 C-106 106.34 -106 105.68 -106 105 C-104.515 104.505 -104.515 104.505 -103 104 C-103 103.34 -103 102.68 -103 102 C-102.34 102 -101.68 102 -101 102 C-101 101.34 -101 100.68 -101 100 C-100.01 99.67 -99.02 99.34 -98 99 C-98 98.34 -98 97.68 -98 97 C-97.34 97 -96.68 97 -96 97 C-96 96.34 -96 95.68 -96 95 C-95.360625 94.731875 -94.72125 94.46375 -94.0625 94.1875 C-91.66868314 93.11332248 -91.66868314 93.11332248 -91 90 C-90.34 90 -89.68 90 -89 90 C-89 89.34 -89 88.68 -89 88 C-88.01 87.67 -87.02 87.34 -86 87 C-86 86.34 -86 85.68 -86 85 C-85.34 85 -84.68 85 -84 85 C-84 84.34 -84 83.68 -84 83 C-83.01 82.67 -82.02 82.34 -81 82 C-81 81.34 -81 80.68 -81 80 C-80.34 80 -79.68 80 -79 80 C-79 79.34 -79 78.68 -79 78 C-78.34 78 -77.68 78 -77 78 C-77 77.34 -77 76.68 -77 76 C-76.01 75.67 -75.02 75.34 -74 75 C-74 74.34 -74 73.68 -74 73 C-73.34 73 -72.68 73 -72 73 C-72 72.34 -72 71.68 -72 71 C-71.01 70.67 -70.02 70.34 -69 70 C-69 69.34 -69 68.68 -69 68 C-68.34 68 -67.68 68 -67 68 C-67 67.34 -67 66.68 -67 66 C-66.360625 65.731875 -65.72125 65.46375 -65.0625 65.1875 C-62.66868314 64.11332248 -62.66868314 64.11332248 -62 61 C-61.34 61 -60.68 61 -60 61 C-60 60.34 -60 59.68 -60 59 C-59.01 58.67 -58.02 58.34 -57 58 C-57 57.34 -57 56.68 -57 56 C-56.34 56 -55.68 56 -55 56 C-55 55.34 -55 54.68 -55 54 C-54.360625 53.731875 -53.72125 53.46375 -53.0625 53.1875 C-50.66868314 52.11332248 -50.66868314 52.11332248 -50 49 C-49.01 48.67 -48.02 48.34 -47 48 C-51.66522851 42.37780154 -56.51259405 36.83989204 -62 32 C-62.66 32 -63.32 32 -64 32 Z M-290 33 C-290 33.66 -290 34.32 -290 35 C-290.66 35 -291.32 35 -292 35 C-292 35.66 -292 36.32 -292 37 C-292.639375 37.268125 -293.27875 37.53625 -293.9375 37.8125 C-296.33131686 38.88667752 -296.33131686 38.88667752 -297 42 C-298.33333333 42.66666667 -299.66666667 43.33333333 -301 44 C-301.33 44.99 -301.66 45.98 -302 47 C-302.66 47 -303.32 47 -304 47 C-304.33 47.99 -304.66 48.98 -305 50 C-291.61107322 63.43558853 -278.21646889 76.86549132 -264.81502724 90.28859711 C-258.59304025 96.5209092 -252.37294523 102.75508809 -246.15722656 108.99365234 C-240.74140647 114.42936857 -235.32211362 119.86159382 -229.89857137 125.28960562 C-227.02534254 128.16544824 -224.15391742 131.04304242 -221.28664017 133.92481995 C-218.59057465 136.63440979 -215.88990826 139.33932487 -213.18556404 142.04065132 C-212.19131043 143.03545742 -211.19878338 144.03199243 -210.20807838 145.03033257 C-208.86024752 146.3880438 -207.50570806 147.73908564 -206.15078735 149.08972168 C-205.0142166 150.22905781 -205.0142166 150.22905781 -203.85468483 151.39141083 C-202.1573639 153.21840287 -202.1573639 153.21840287 -200 153 C-200 152.34 -200 151.68 -200 151 C-199.01 150.67 -198.02 150.34 -197 150 C-197 149.34 -197 148.68 -197 148 C-196.34 148 -195.68 148 -195 148 C-195 147.34 -195 146.68 -195 146 C-194.01 145.67 -193.02 145.34 -192 145 C-192 144.34 -192 143.68 -192 143 C-191.34 143 -190.68 143 -190 143 C-190 142.34 -190 141.68 -190 141 C-189.34 141 -188.68 141 -188 141 C-188 140.34 -188 139.68 -188 139 C-187.01 138.67 -186.02 138.34 -185 138 C-189.9137933 132.07744516 -195.21568254 126.64258193 -200.66137695 121.20922852 C-201.62635083 120.24289712 -202.59111238 119.27635367 -203.55567932 118.30961609 C-206.15628953 115.70447691 -208.76001645 113.10247442 -211.36448312 110.50119138 C-214.09346502 107.77475226 -216.81999388 105.04586175 -219.54692078 102.31736755 C-224.11875894 97.74371514 -228.6926908 93.17216452 -233.26782227 88.60180664 C-238.56280047 83.31228918 -243.85414027 78.01915253 -249.14364272 72.72415978 C-253.6888263 68.1744471 -258.23594444 63.62667479 -262.78470391 59.08053726 C-265.50032801 56.36647455 -268.21526615 53.65173492 -270.92846107 50.93524361 C-273.4731618 48.38766647 -276.02027277 45.84252457 -278.56931114 43.2992878 C-279.9555513 41.9150116 -281.33931511 40.52825694 -282.72302246 39.14144897 C-283.54031326 38.326978 -284.35760406 37.51250702 -285.19966125 36.6733551 C-285.91363225 35.95976113 -286.62760324 35.24616716 -287.36320972 34.51094913 C-288.75120381 32.88695066 -288.75120381 32.88695066 -290 33 Z M-40 56 C-40.33 56.99 -40.66 57.98 -41 59 C-42.33333333 59.66666667 -43.66666667 60.33333333 -45 61 C-45.33 61.99 -45.66 62.98 -46 64 C-46.66 64 -47.32 64 -48 64 C-48 64.66 -48 65.32 -48 66 C-48.639375 66.268125 -49.27875 66.53625 -49.9375 66.8125 C-52.33131686 67.88667752 -52.33131686 67.88667752 -53 71 C-54.33333333 71.66666667 -55.66666667 72.33333333 -57 73 C-57.495 74.485 -57.495 74.485 -58 76 C-59.33333333 76.66666667 -60.66666667 77.33333333 -62 78 C-62.495 79.485 -62.495 79.485 -63 81 C-63.66 81 -64.32 81 -65 81 C-65 81.66 -65 82.32 -65 83 C-65.639375 83.268125 -66.27875 83.53625 -66.9375 83.8125 C-69.33131686 84.88667752 -69.33131686 84.88667752 -70 88 C-71.33333333 88.66666667 -72.66666667 89.33333333 -74 90 C-74.33 90.99 -74.66 91.98 -75 93 C-75.66 93 -76.32 93 -77 93 C-77 93.66 -77 94.32 -77 95 C-77.639375 95.268125 -78.27875 95.53625 -78.9375 95.8125 C-81.33131686 96.88667752 -81.33131686 96.88667752 -82 100 C-83.33333333 100.66666667 -84.66666667 101.33333333 -86 102 C-86.33 102.99 -86.66 103.98 -87 105 C-87.66 105 -88.32 105 -89 105 C-89 105.66 -89 106.32 -89 107 C-89.639375 107.268125 -90.27875 107.53625 -90.9375 107.8125 C-93.33131686 108.88667752 -93.33131686 108.88667752 -94 112 C-95.33333333 112.66666667 -96.66666667 113.33333333 -98 114 C-98.33 114.99 -98.66 115.98 -99 117 C-100.33333333 117.66666667 -101.66666667 118.33333333 -103 119 C-103.33 119.99 -103.66 120.98 -104 122 C-104.66 122 -105.32 122 -106 122 C-106 122.66 -106 123.32 -106 124 C-106.9590625 124.4021875 -106.9590625 124.4021875 -107.9375 124.8125 C-110.33131686 125.88667752 -110.33131686 125.88667752 -111 129 C-112.33333333 129.66666667 -113.66666667 130.33333333 -115 131 C-115.33 131.99 -115.66 132.98 -116 134 C-116.66 134 -117.32 134 -118 134 C-118 134.66 -118 135.32 -118 136 C-118.639375 136.268125 -119.27875 136.53625 -119.9375 136.8125 C-122.33131686 137.88667752 -122.33131686 137.88667752 -123 141 C-124.33333333 141.66666667 -125.66666667 142.33333333 -127 143 C-127.33 143.99 -127.66 144.98 -128 146 C-129.33333333 146.66666667 -130.66666667 147.33333333 -132 148 C-132.33 148.99 -132.66 149.98 -133 151 C-133.66 151 -134.32 151 -135 151 C-135 151.66 -135 152.32 -135 153 C-135.9590625 153.4021875 -135.9590625 153.4021875 -136.9375 153.8125 C-139.33131686 154.88667752 -139.33131686 154.88667752 -140 158 C-142.0625 159.1875 -142.0625 159.1875 -144 160 C-144.31007227 162.9531478 -144.31007227 162.9531478 -142.71484375 164.62573242 C-142.12832031 165.19654541 -141.54179687 165.7673584 -140.9375 166.35546875 C-140.30585938 166.97744141 -139.67421875 167.59941406 -139.0234375 168.24023438 C-138.35570312 168.88283203 -137.68796875 169.52542969 -137 170.1875 C-136.33226562 170.84169922 -135.66453125 171.49589844 -134.9765625 172.16992188 C-133.32421559 173.78686135 -131.66528399 175.39640491 -130 177 C-128.515 176.505 -128.515 176.505 -127 176 C-127 175.34 -127 174.68 -127 174 C-126.34 174 -125.68 174 -125 174 C-125 173.34 -125 172.68 -125 172 C-124.360625 171.731875 -123.72125 171.46375 -123.0625 171.1875 C-120.66868314 170.11332248 -120.66868314 170.11332248 -120 167 C-119.34 167 -118.68 167 -118 167 C-118 166.34 -118 165.68 -118 165 C-116.515 164.505 -116.515 164.505 -115 164 C-115 163.34 -115 162.68 -115 162 C-114.34 162 -113.68 162 -113 162 C-113 161.34 -113 160.68 -113 160 C-112.0409375 159.5978125 -112.0409375 159.5978125 -111.0625 159.1875 C-108.66868314 158.11332248 -108.66868314 158.11332248 -108 155 C-107.34 155 -106.68 155 -106 155 C-106 154.34 -106 153.68 -106 153 C-105.01 152.67 -104.02 152.34 -103 152 C-103 151.34 -103 150.68 -103 150 C-102.34 150 -101.68 150 -101 150 C-101 149.34 -101 148.68 -101 148 C-100.0409375 147.5978125 -100.0409375 147.5978125 -99.0625 147.1875 C-96.66868314 146.11332248 -96.66868314 146.11332248 -96 143 C-94.66666667 142.33333333 -93.33333333 141.66666667 -92 141 C-91.505 139.515 -91.505 139.515 -91 138 C-90.34 138 -89.68 138 -89 138 C-89 137.34 -89 136.68 -89 136 C-88.01 135.67 -87.02 135.34 -86 135 C-86 134.34 -86 133.68 -86 133 C-85.34 133 -84.68 133 -84 133 C-84 132.34 -84 131.68 -84 131 C-83.0409375 130.5978125 -83.0409375 130.5978125 -82.0625 130.1875 C-79.66868314 129.11332248 -79.66868314 129.11332248 -79 126 C-78.34 126 -77.68 126 -77 126 C-77 125.34 -77 124.68 -77 124 C-76.01 123.67 -75.02 123.34 -74 123 C-74 122.34 -74 121.68 -74 121 C-73.34 121 -72.68 121 -72 121 C-72 120.34 -72 119.68 -72 119 C-71.360625 118.731875 -70.72125 118.46375 -70.0625 118.1875 C-67.66868314 117.11332248 -67.66868314 117.11332248 -67 114 C-66.34 114 -65.68 114 -65 114 C-65 113.34 -65 112.68 -65 112 C-64.01 111.67 -63.02 111.34 -62 111 C-62 110.34 -62 109.68 -62 109 C-61.34 109 -60.68 109 -60 109 C-60 108.34 -60 107.68 -60 107 C-59.01 106.67 -58.02 106.34 -57 106 C-57 105.34 -57 104.68 -57 104 C-56.34 104 -55.68 104 -55 104 C-55 103.34 -55 102.68 -55 102 C-54.360625 101.731875 -53.72125 101.46375 -53.0625 101.1875 C-50.66868314 100.11332248 -50.66868314 100.11332248 -50 97 C-49.34 97 -48.68 97 -48 97 C-48 96.34 -48 95.68 -48 95 C-47.01 94.67 -46.02 94.34 -45 94 C-45 93.34 -45 92.68 -45 92 C-44.34 92 -43.68 92 -43 92 C-43 91.34 -43 90.68 -43 90 C-42.360625 89.731875 -41.72125 89.46375 -41.0625 89.1875 C-38.66868314 88.11332248 -38.66868314 88.11332248 -38 85 C-37.34 85 -36.68 85 -36 85 C-36 84.34 -36 83.68 -36 83 C-35.01 82.67 -34.02 82.34 -33 82 C-33 81.34 -33 80.68 -33 80 C-32.34 80 -31.68 80 -31 80 C-31 79.34 -31 78.68 -31 78 C-30.360625 77.731875 -29.72125 77.46375 -29.0625 77.1875 C-26.66868314 76.11332248 -26.66868314 76.11332248 -26 73 C-25.01 72.67 -24.02 72.34 -23 72 C-27.66522851 66.37780154 -32.51259405 60.83989204 -38 56 C-38.66 56 -39.32 56 -40 56 Z M-314 57 C-314 57.66 -314 58.32 -314 59 C-314.66 59 -315.32 59 -316 59 C-316 59.66 -316 60.32 -316 61 C-316.99 61.33 -317.98 61.66 -319 62 C-319 62.66 -319 63.32 -319 64 C-319.66 64 -320.32 64 -321 64 C-321 64.66 -321 65.32 -321 66 C-321.639375 66.268125 -322.27875 66.53625 -322.9375 66.8125 C-325.33131686 67.88667752 -325.33131686 67.88667752 -326 71 C-326.66 71 -327.32 71 -328 71 C-328.33 71.99 -328.66 72.98 -329 74 C-315.61107322 87.43558853 -302.21646889 100.86549132 -288.81502724 114.28859711 C-282.59304025 120.5209092 -276.37294523 126.75508809 -270.15722656 132.99365234 C-264.74140647 138.42936857 -259.32211362 143.86159382 -253.89857137 149.28960562 C-251.02534254 152.16544824 -248.15391742 155.04304242 -245.28664017 157.92481995 C-242.59057465 160.63440979 -239.88990826 163.33932487 -237.18556404 166.04065132 C-236.19131043 167.03545742 -235.19878338 168.03199243 -234.20807838 169.03033257 C-232.86024752 170.3880438 -231.50570806 171.73908564 -230.15078735 173.08972168 C-229.0142166 174.22905781 -229.0142166 174.22905781 -227.85468483 175.39141083 C-226.1573639 177.21840287 -226.1573639 177.21840287 -224 177 C-224 176.34 -224 175.68 -224 175 C-223.01 174.67 -222.02 174.34 -221 174 C-221 173.34 -221 172.68 -221 172 C-220.34 172 -219.68 172 -219 172 C-219 171.34 -219 170.68 -219 170 C-218.34 170 -217.68 170 -217 170 C-217 169.34 -217 168.68 -217 168 C-216.01 167.67 -215.02 167.34 -214 167 C-214 166.34 -214 165.68 -214 165 C-213.34 165 -212.68 165 -212 165 C-212 164.34 -212 163.68 -212 163 C-211.01 162.67 -210.02 162.34 -209 162 C-213.9137933 156.07744516 -219.21568254 150.64258193 -224.66137695 145.20922852 C-225.62635083 144.24289712 -226.59111238 143.27635367 -227.55567932 142.30961609 C-230.15628953 139.70447691 -232.76001645 137.10247442 -235.36448312 134.50119138 C-238.09346502 131.77475226 -240.81999388 129.04586175 -243.54692078 126.31736755 C-248.11875894 121.74371514 -252.6926908 117.17216452 -257.26782227 112.60180664 C-262.56280047 107.31228918 -267.85414027 102.01915253 -273.14364272 96.72415978 C-277.6888263 92.1744471 -282.23594444 87.62667479 -286.78470391 83.08053726 C-289.50032801 80.36647455 -292.21526615 77.65173492 -294.92846107 74.93524361 C-297.4731618 72.38766647 -300.02027277 69.84252457 -302.56931114 67.2992878 C-303.9555513 65.9150116 -305.33931511 64.52825694 -306.72302246 63.14144897 C-307.54031326 62.326978 -308.35760406 61.51250702 -309.19966125 60.6733551 C-309.91363225 59.95976113 -310.62760324 59.24616716 -311.36320972 58.51094913 C-312.75120381 56.88695066 -312.75120381 56.88695066 -314 57 Z M-179.625 147.375 C-181.21531408 148.89968321 -181.21531408 148.89968321 -181 151 C-181.598125 151.268125 -182.19625 151.53625 -182.8125 151.8125 C-184.99847854 152.99917406 -186.41332594 154.09599113 -188 156 C-188 156.66 -188 157.32 -188 158 C-189.98 158.99 -189.98 158.99 -192 160 C-192.30529201 162.94616062 -192.30529201 162.94616062 -190.74658203 164.62573242 C-189.88589111 165.4819519 -189.88589111 165.4819519 -189.0078125 166.35546875 C-188.38519531 166.97744141 -187.76257813 167.59941406 -187.12109375 168.24023438 C-186.46238281 168.88283203 -185.80367187 169.52542969 -185.125 170.1875 C-184.47402344 170.84169922 -183.82304687 171.49589844 -183.15234375 172.16992188 C-180.09861744 175.70309672 -180.09861744 175.70309672 -176 177 C-176 176.34 -176 175.68 -176 175 C-175.01 174.67 -174.02 174.34 -173 174 C-173 173.34 -173 172.68 -173 172 C-172.34 172 -171.68 172 -171 172 C-171 171.34 -171 170.68 -171 170 C-170.01 169.67 -169.02 169.34 -168 169 C-168 168.34 -168 167.68 -168 167 C-167.34 167 -166.68 167 -166 167 C-166 166.34 -166 165.68 -166 165 C-164.68 164.34 -163.36 163.68 -162 163 C-161.69470799 160.05383938 -161.69470799 160.05383938 -163.25341797 158.37426758 C-163.82721191 157.80345459 -164.40100586 157.2326416 -164.9921875 156.64453125 C-165.61480469 156.02255859 -166.23742187 155.40058594 -166.87890625 154.75976562 C-167.53761719 154.11716797 -168.19632813 153.47457031 -168.875 152.8125 C-169.52597656 152.15830078 -170.17695313 151.50410156 -170.84765625 150.83007812 C-174.73696865 146.11606863 -174.73696865 146.11606863 -179.625 147.375 Z M-203.625 171.375 C-205.21531408 172.89968321 -205.21531408 172.89968321 -205 175 C-205.639375 175.268125 -206.27875 175.53625 -206.9375 175.8125 C-209.33131686 176.88667752 -209.33131686 176.88667752 -210 180 C-211.33333333 180.66666667 -212.66666667 181.33333333 -214 182 C-215.03330144 183.30769488 -216.03778228 184.63914922 -217 186 C-214.54976242 188.50804718 -212.08852402 191.0050076 -209.625 193.5 C-208.92632812 194.21542969 -208.22765625 194.93085938 -207.5078125 195.66796875 C-206.8375 196.34472656 -206.1671875 197.02148438 -205.4765625 197.71875 C-204.549646 198.66137695 -204.549646 198.66137695 -203.60400391 199.62304688 C-202.09940431 201.21712061 -202.09940431 201.21712061 -200 201 C-200 200.34 -200 199.68 -200 199 C-199.01 198.67 -198.02 198.34 -197 198 C-197 197.34 -197 196.68 -197 196 C-196.34 196 -195.68 196 -195 196 C-195 195.34 -195 194.68 -195 194 C-194.360625 193.731875 -193.72125 193.46375 -193.0625 193.1875 C-190.66868314 192.11332248 -190.66868314 192.11332248 -190 189 C-189.34 189 -188.68 189 -188 189 C-188 188.34 -188 187.68 -188 187 C-187.01 186.67 -186.02 186.34 -185 186 C-189.66522851 180.37780154 -194.51259405 174.83989204 -200 170 C-202.10031679 169.78468592 -202.10031679 169.78468592 -203.625 171.375 Z M-155.625 171.375 C-157.21531408 172.89968321 -157.21531408 172.89968321 -157 175 C-157.66 175 -158.32 175 -159 175 C-159 175.66 -159 176.32 -159 177 C-159.639375 177.268125 -160.27875 177.53625 -160.9375 177.8125 C-163.33131686 178.88667752 -163.33131686 178.88667752 -164 182 C-166.0625 183.1875 -166.0625 183.1875 -168 184 C-168.31007227 186.9531478 -168.31007227 186.9531478 -166.71484375 188.62573242 C-165.83505859 189.4819519 -165.83505859 189.4819519 -164.9375 190.35546875 C-164.30585938 190.97744141 -163.67421875 191.59941406 -163.0234375 192.24023438 C-162.02183594 193.20413086 -162.02183594 193.20413086 -161 194.1875 C-160.33226562 194.84169922 -159.66453125 195.49589844 -158.9765625 196.16992188 C-157.32421559 197.78686135 -155.66528399 199.39640491 -154 201 C-152.00016466 200.20882096 -152.00016466 200.20882096 -150 199 C-149.67 198.01 -149.34 197.02 -149 196 C-148.34 196 -147.68 196 -147 196 C-147 195.34 -147 194.68 -147 194 C-146.01 193.67 -145.02 193.34 -144 193 C-144 192.34 -144 191.68 -144 191 C-143.34 191 -142.68 191 -142 191 C-142 190.34 -142 189.68 -142 189 C-140.68 188.34 -139.36 187.68 -138 187 C-137.69470799 184.05383938 -137.69470799 184.05383938 -139.25341797 182.37426758 C-139.82721191 181.80345459 -140.40100586 181.2326416 -140.9921875 180.64453125 C-141.61480469 180.02255859 -142.23742187 179.40058594 -142.87890625 178.75976562 C-143.53761719 178.11716797 -144.19632813 177.47457031 -144.875 176.8125 C-145.52597656 176.15830078 -146.17695313 175.50410156 -146.84765625 174.83007812 C-150.73696865 170.11606863 -150.73696865 170.11606863 -155.625 171.375 Z M-226 194 C-226.33 194.99 -226.66 195.98 -227 197 C-227.66 197 -228.32 197 -229 197 C-229 197.66 -229 198.32 -229 199 C-229.639375 199.268125 -230.27875 199.53625 -230.9375 199.8125 C-233.33131686 200.88667752 -233.33131686 200.88667752 -234 204 C-235.33333333 204.66666667 -236.66666667 205.33333333 -238 206 C-238.33 206.99 -238.66 207.98 -239 209 C-240.3153341 209.70151152 -241.65117592 210.36525925 -243 211 C-244.7511573 212.4166747 -244.7511573 212.4166747 -246 214 C-246 214.66 -246 215.32 -246 216 C-246.639375 216.268125 -247.27875 216.53625 -247.9375 216.8125 C-250.33131686 217.88667752 -250.33131686 217.88667752 -251 221 C-252.33333333 221.66666667 -253.66666667 222.33333333 -255 223 C-255.495 224.485 -255.495 224.485 -256 226 C-256.66 226 -257.32 226 -258 226 C-258 226.66 -258 227.32 -258 228 C-258.639375 228.268125 -259.27875 228.53625 -259.9375 228.8125 C-262.33131686 229.88667752 -262.33131686 229.88667752 -263 233 C-265 234 -265 234 -267 235 C-267.33 235.99 -267.66 236.98 -268 238 C-269.3153341 238.70151152 -270.65117592 239.36525925 -272 240 C-273.7511573 241.4166747 -273.7511573 241.4166747 -275 243 C-275 243.66 -275 244.32 -275 245 C-275.639375 245.268125 -276.27875 245.53625 -276.9375 245.8125 C-279.33131686 246.88667752 -279.33131686 246.88667752 -280 250 C-281.3153341 250.70151152 -282.65117592 251.36525925 -284 252 C-285.7511573 253.4166747 -285.7511573 253.4166747 -287 255 C-287 255.66 -287 256.32 -287 257 C-287.639375 257.268125 -288.27875 257.53625 -288.9375 257.8125 C-291.33131686 258.88667752 -291.33131686 258.88667752 -292 262 C-293.33333333 262.66666667 -294.66666667 263.33333333 -296 264 C-296.495 265.485 -296.495 265.485 -297 267 C-297.66 267 -298.32 267 -299 267 C-299 267.66 -299 268.32 -299 269 C-299.639375 269.268125 -300.27875 269.53625 -300.9375 269.8125 C-303.33131686 270.88667752 -303.33131686 270.88667752 -304 274 C-305.33333333 274.66666667 -306.66666667 275.33333333 -308 276 C-308.33 276.99 -308.66 277.98 -309 279 C-310.3153341 279.70151152 -311.65117592 280.36525925 -313 281 C-314.7511573 282.4166747 -314.7511573 282.4166747 -316 284 C-316 284.66 -316 285.32 -316 286 C-316.9590625 286.4021875 -316.9590625 286.4021875 -317.9375 286.8125 C-320.33131686 287.88667752 -320.33131686 287.88667752 -321 291 C-321.598125 291.28875 -322.19625 291.5775 -322.8125 291.875 C-325.69100341 293.35537318 -327.10099999 295.42278571 -329 298 C-324.30233025 303.66129431 -319.25276628 308.85228904 -314 314 C-313.505 313.01 -313.505 313.01 -313 312 C-312.34 312 -311.68 312 -311 312 C-311 311.34 -311 310.68 -311 310 C-309.515 309.505 -309.515 309.505 -308 309 C-308 308.34 -308 307.68 -308 307 C-307.34 307 -306.68 307 -306 307 C-306 306.34 -306 305.68 -306 305 C-305.34 305 -304.68 305 -304 305 C-304 304.34 -304 303.68 -304 303 C-302.515 302.505 -302.515 302.505 -301 302 C-301 301.34 -301 300.68 -301 300 C-300.34 300 -299.68 300 -299 300 C-299 299.34 -299 298.68 -299 298 C-297.515 297.505 -297.515 297.505 -296 297 C-296 296.34 -296 295.68 -296 295 C-295.34 295 -294.68 295 -294 295 C-294 294.34 -294 293.68 -294 293 C-293.0409375 292.5978125 -293.0409375 292.5978125 -292.0625 292.1875 C-289.66868314 291.11332248 -289.66868314 291.11332248 -289 288 C-288.34 288 -287.68 288 -287 288 C-287 287.34 -287 286.68 -287 286 C-286.01 285.67 -285.02 285.34 -284 285 C-284 284.34 -284 283.68 -284 283 C-283.34 283 -282.68 283 -282 283 C-282 282.34 -282 281.68 -282 281 C-281.01 280.67 -280.02 280.34 -279 280 C-279 279.34 -279 278.68 -279 278 C-278.34 278 -277.68 278 -277 278 C-277 277.34 -277 276.68 -277 276 C-276.34 276 -275.68 276 -275 276 C-275 275.34 -275 274.68 -275 274 C-274.01 273.67 -273.02 273.34 -272 273 C-272 272.34 -272 271.68 -272 271 C-271.34 271 -270.68 271 -270 271 C-270 270.34 -270 269.68 -270 269 C-269.01 268.67 -268.02 268.34 -267 268 C-267 267.34 -267 266.68 -267 266 C-266.34 266 -265.68 266 -265 266 C-265 265.34 -265 264.68 -265 264 C-264.0409375 263.5978125 -264.0409375 263.5978125 -263.0625 263.1875 C-260.66868314 262.11332248 -260.66868314 262.11332248 -260 259 C-259.34 259 -258.68 259 -258 259 C-258 258.34 -258 257.68 -258 257 C-257.01 256.67 -256.02 256.34 -255 256 C-255 255.34 -255 254.68 -255 254 C-254.34 254 -253.68 254 -253 254 C-253 253.34 -253 252.68 -253 252 C-252.01 251.67 -251.02 251.34 -250 251 C-250 250.34 -250 249.68 -250 249 C-249.34 249 -248.68 249 -248 249 C-248 248.34 -248 247.68 -248 247 C-247.34 247 -246.68 247 -246 247 C-246 246.34 -246 245.68 -246 245 C-245.01 244.67 -244.02 244.34 -243 244 C-243 243.34 -243 242.68 -243 242 C-242.34 242 -241.68 242 -241 242 C-241 241.34 -241 240.68 -241 240 C-240.01 239.67 -239.02 239.34 -238 239 C-238 238.34 -238 237.68 -238 237 C-237.34 237 -236.68 237 -236 237 C-236 236.34 -236 235.68 -236 235 C-235.360625 234.731875 -234.72125 234.46375 -234.0625 234.1875 C-231.66868314 233.11332248 -231.66868314 233.11332248 -231 230 C-230.34 230 -229.68 230 -229 230 C-229 229.34 -229 228.68 -229 228 C-228.01 227.67 -227.02 227.34 -226 227 C-226 226.34 -226 225.68 -226 225 C-225.34 225 -224.68 225 -224 225 C-224 224.34 -224 223.68 -224 223 C-223.360625 222.731875 -222.72125 222.46375 -222.0625 222.1875 C-219.66868314 221.11332248 -219.66868314 221.11332248 -219 218 C-218.34 218 -217.68 218 -217 218 C-217 217.34 -217 216.68 -217 216 C-216.01 215.67 -215.02 215.34 -214 215 C-214 214.34 -214 213.68 -214 213 C-213.34 213 -212.68 213 -212 213 C-212 212.34 -212 211.68 -212 211 C-211.01 210.67 -210.02 210.34 -209 210 C-213.66522851 204.37780154 -218.51259405 198.83989204 -224 194 C-224.66 194 -225.32 194 -226 194 Z M-179.625 195.375 C-181.21531408 196.89968321 -181.21531408 196.89968321 -181 199 C-181.639375 199.268125 -182.27875 199.53625 -182.9375 199.8125 C-185.33131686 200.88667752 -185.33131686 200.88667752 -186 204 C-186.66 204 -187.32 204 -188 204 C-188 204.66 -188 205.32 -188 206 C-189.98 206.99 -189.98 206.99 -192 208 C-192.30529201 210.94616062 -192.30529201 210.94616062 -190.74658203 212.62573242 C-189.88589111 213.4819519 -189.88589111 213.4819519 -189.0078125 214.35546875 C-188.38519531 214.97744141 -187.76257813 215.59941406 -187.12109375 216.24023438 C-186.46238281 216.88283203 -185.80367187 217.52542969 -185.125 218.1875 C-184.47402344 218.84169922 -183.82304687 219.49589844 -183.15234375 220.16992188 C-180.09861744 223.70309672 -180.09861744 223.70309672 -176 225 C-176 224.34 -176 223.68 -176 223 C-175.01 222.67 -174.02 222.34 -173 222 C-173 221.34 -173 220.68 -173 220 C-172.34 220 -171.68 220 -171 220 C-171 219.34 -171 218.68 -171 218 C-170.360625 217.731875 -169.72125 217.46375 -169.0625 217.1875 C-166.66868314 216.11332248 -166.66868314 216.11332248 -166 213 C-163.9375 211.8125 -163.9375 211.8125 -162 211 C-161.69470799 208.05383938 -161.69470799 208.05383938 -163.25341797 206.37426758 C-163.82721191 205.80345459 -164.40100586 205.2326416 -164.9921875 204.64453125 C-165.61480469 204.02255859 -166.23742187 203.40058594 -166.87890625 202.75976562 C-167.53761719 202.11716797 -168.19632813 201.47457031 -168.875 200.8125 C-169.52597656 200.15830078 -170.17695313 199.50410156 -170.84765625 198.83007812 C-174.73696865 194.11606863 -174.73696865 194.11606863 -179.625 195.375 Z M-131.625 195.375 C-133.21531408 196.89968321 -133.21531408 196.89968321 -133 199 C-133.66 199 -134.32 199 -135 199 C-135 199.66 -135 200.32 -135 201 C-135.639375 201.268125 -136.27875 201.53625 -136.9375 201.8125 C-139.33131686 202.88667752 -139.33131686 202.88667752 -140 206 C-142.0625 207.1875 -142.0625 207.1875 -144 208 C-144.31549491 211.03698958 -144.31549491 211.03698958 -142.39141083 212.97773266 C-141.63185341 213.7345247 -140.87229599 214.49131674 -140.08972168 215.27104187 C-139.22306381 216.14182373 -138.35640594 217.01260559 -137.46348572 217.90977478 C-136.49076871 218.87187376 -135.51790927 219.83382876 -134.54492188 220.7956543 C-133.52951232 221.81021796 -132.51476225 222.82544203 -131.50062561 223.84127808 C-128.74086337 226.60190321 -125.97193026 229.35316304 -123.20130348 232.10287833 C-120.30915889 234.976305 -117.42547345 237.85819498 -114.54089355 240.73921204 C-109.07511237 246.19565838 -103.60172686 251.64441062 -98.12559271 257.09046441 C-91.8924879 263.29006997 -85.66787085 269.49816751 -79.44396496 275.70700586 C-66.63875549 288.48083371 -53.82288442 301.24391632 -41 314 C-39.00016466 313.20882096 -39.00016466 313.20882096 -37 312 C-36.505 310.515 -36.505 310.515 -36 309 C-34.66666667 308.33333333 -33.33333333 307.66666667 -32 307 C-31.505 305.515 -31.505 305.515 -31 304 C-29.66666667 303.33333333 -28.33333333 302.66666667 -27 302 C-25.96669856 300.69230512 -24.96221772 299.36085078 -24 298 C-37.51931073 284.43402772 -51.0442989 270.873741 -64.57612419 257.32025146 C-70.85864525 251.02740525 -77.13927444 244.73269212 -83.41552734 238.43359375 C-88.88408521 232.94513987 -94.35611581 227.46017678 -99.83239567 221.97942734 C-102.73357006 219.07563913 -105.63294093 216.17009907 -108.52816391 213.26037598 C-111.25049426 210.5245215 -113.97742562 207.79334121 -116.70803452 205.06575012 C-117.71196345 204.0612687 -118.71416574 203.05505831 -119.7145462 202.04704285 C-121.07551449 200.6761945 -122.44319084 199.31201539 -123.81124878 197.94824219 C-124.57633696 197.18131042 -125.34142513 196.41437866 -126.1296978 195.62420654 C-128.49418638 193.570839 -129.20892876 193.33063203 -131.625 195.375 Z M-202 218 C-202.33 218.99 -202.66 219.98 -203 221 C-203.66 221 -204.32 221 -205 221 C-205 221.66 -205 222.32 -205 223 C-205.639375 223.268125 -206.27875 223.53625 -206.9375 223.8125 C-209.33131686 224.88667752 -209.33131686 224.88667752 -210 228 C-211.33333333 228.66666667 -212.66666667 229.33333333 -214 230 C-214.33 230.99 -214.66 231.98 -215 233 C-215.66 233 -216.32 233 -217 233 C-217 233.66 -217 234.32 -217 235 C-217.639375 235.268125 -218.27875 235.53625 -218.9375 235.8125 C-221.33131686 236.88667752 -221.33131686 236.88667752 -222 240 C-223.33333333 240.66666667 -224.66666667 241.33333333 -226 242 C-226.495 243.485 -226.495 243.485 -227 245 C-228.33333333 245.66666667 -229.66666667 246.33333333 -231 247 C-231.495 248.485 -231.495 248.485 -232 250 C-232.66 250 -233.32 250 -234 250 C-234 250.66 -234 251.32 -234 252 C-234.639375 252.268125 -235.27875 252.53625 -235.9375 252.8125 C-238.33131686 253.88667752 -238.33131686 253.88667752 -239 257 C-241 258 -241 258 -243 259 C-243.33 259.99 -243.66 260.98 -244 262 C-244.66 262 -245.32 262 -246 262 C-246 262.66 -246 263.32 -246 264 C-246.639375 264.268125 -247.27875 264.53625 -247.9375 264.8125 C-250.33131686 265.88667752 -250.33131686 265.88667752 -251 269 C-252.33333333 269.66666667 -253.66666667 270.33333333 -255 271 C-255.33 271.99 -255.66 272.98 -256 274 C-256.66 274 -257.32 274 -258 274 C-258 274.66 -258 275.32 -258 276 C-258.639375 276.268125 -259.27875 276.53625 -259.9375 276.8125 C-262.33131686 277.88667752 -262.33131686 277.88667752 -263 281 C-264.33333333 281.66666667 -265.66666667 282.33333333 -267 283 C-267.495 284.485 -267.495 284.485 -268 286 C-269.33333333 286.66666667 -270.66666667 287.33333333 -272 288 C-272.495 289.485 -272.495 289.485 -273 291 C-273.66 291 -274.32 291 -275 291 C-275 291.66 -275 292.32 -275 293 C-275.639375 293.268125 -276.27875 293.53625 -276.9375 293.8125 C-279.33131686 294.88667752 -279.33131686 294.88667752 -280 298 C-281.33333333 298.66666667 -282.66666667 299.33333333 -284 300 C-284.33 300.99 -284.66 301.98 -285 303 C-285.66 303 -286.32 303 -287 303 C-287 303.66 -287 304.32 -287 305 C-287.639375 305.268125 -288.27875 305.53625 -288.9375 305.8125 C-291.33131686 306.88667752 -291.33131686 306.88667752 -292 310 C-293.33333333 310.66666667 -294.66666667 311.33333333 -296 312 C-296.33 312.99 -296.66 313.98 -297 315 C-298.33333333 315.66666667 -299.66666667 316.33333333 -301 317 C-301.33 317.99 -301.66 318.98 -302 320 C-302.66 320 -303.32 320 -304 320 C-304.33 320.99 -304.66 321.98 -305 323 C-300.05 327.95 -295.1 332.9 -290 338 C-289.505 337.01 -289.505 337.01 -289 336 C-288.34 336 -287.68 336 -287 336 C-287 335.34 -287 334.68 -287 334 C-285.515 333.505 -285.515 333.505 -284 333 C-284 332.34 -284 331.68 -284 331 C-283.34 331 -282.68 331 -282 331 C-282 330.34 -282 329.68 -282 329 C-281.360625 328.731875 -280.72125 328.46375 -280.0625 328.1875 C-277.66868314 327.11332248 -277.66868314 327.11332248 -277 324 C-276.34 324 -275.68 324 -275 324 C-275 323.34 -275 322.68 -275 322 C-273.515 321.505 -273.515 321.505 -272 321 C-272 320.34 -272 319.68 -272 319 C-271.34 319 -270.68 319 -270 319 C-270 318.34 -270 317.68 -270 317 C-269.0409375 316.5978125 -269.0409375 316.5978125 -268.0625 316.1875 C-265.66868314 315.11332248 -265.66868314 315.11332248 -265 312 C-263.66666667 311.33333333 -262.33333333 310.66666667 -261 310 C-260.505 308.515 -260.505 308.515 -260 307 C-259.34 307 -258.68 307 -258 307 C-258 306.34 -258 305.68 -258 305 C-257.01 304.67 -256.02 304.34 -255 304 C-255 303.34 -255 302.68 -255 302 C-254.34 302 -253.68 302 -253 302 C-253 301.34 -253 300.68 -253 300 C-252.0409375 299.5978125 -252.0409375 299.5978125 -251.0625 299.1875 C-248.66868314 298.11332248 -248.66868314 298.11332248 -248 295 C-247.34 295 -246.68 295 -246 295 C-246 294.34 -246 293.68 -246 293 C-245.01 292.67 -244.02 292.34 -243 292 C-243 291.34 -243 290.68 -243 290 C-242.34 290 -241.68 290 -241 290 C-241 289.34 -241 288.68 -241 288 C-240.0409375 287.5978125 -240.0409375 287.5978125 -239.0625 287.1875 C-236.66868314 286.11332248 -236.66868314 286.11332248 -236 283 C-235.34 283 -234.68 283 -234 283 C-234 282.34 -234 281.68 -234 281 C-233.01 280.67 -232.02 280.34 -231 280 C-231 279.34 -231 278.68 -231 278 C-230.34 278 -229.68 278 -229 278 C-229 277.34 -229 276.68 -229 276 C-228.01 275.67 -227.02 275.34 -226 275 C-226 274.34 -226 273.68 -226 273 C-225.34 273 -224.68 273 -224 273 C-224 272.34 -224 271.68 -224 271 C-223.360625 270.731875 -222.72125 270.46375 -222.0625 270.1875 C-219.66868314 269.11332248 -219.66868314 269.11332248 -219 266 C-218.34 266 -217.68 266 -217 266 C-217 265.34 -217 264.68 -217 264 C-216.01 263.67 -215.02 263.34 -214 263 C-214 262.34 -214 261.68 -214 261 C-213.34 261 -212.68 261 -212 261 C-212 260.34 -212 259.68 -212 259 C-211.360625 258.731875 -210.72125 258.46375 -210.0625 258.1875 C-207.66868314 257.11332248 -207.66868314 257.11332248 -207 254 C-206.34 254 -205.68 254 -205 254 C-205 253.34 -205 252.68 -205 252 C-204.01 251.67 -203.02 251.34 -202 251 C-202 250.34 -202 249.68 -202 249 C-201.34 249 -200.68 249 -200 249 C-200 248.34 -200 247.68 -200 247 C-199.360625 246.731875 -198.72125 246.46375 -198.0625 246.1875 C-195.66868314 245.11332248 -195.66868314 245.11332248 -195 242 C-193.66666667 241.33333333 -192.33333333 240.66666667 -191 240 C-190.505 238.515 -190.505 238.515 -190 237 C-189.34 237 -188.68 237 -188 237 C-188 236.34 -188 235.68 -188 235 C-187.01 234.67 -186.02 234.34 -185 234 C-189.66522851 228.37780154 -194.51259405 222.83989204 -200 218 C-200.66 218 -201.32 218 -202 218 Z M-155.625 219.375 C-157.21531408 220.89968321 -157.21531408 220.89968321 -157 223 C-157.639375 223.268125 -158.27875 223.53625 -158.9375 223.8125 C-161.33131686 224.88667752 -161.33131686 224.88667752 -162 228 C-162.66 228 -163.32 228 -164 228 C-164 228.66 -164 229.32 -164 230 C-165.98 230.99 -165.98 230.99 -168 232 C-168.31549491 235.03698958 -168.31549491 235.03698958 -166.39141083 236.97773266 C-165.63185341 237.7345247 -164.87229599 238.49131674 -164.08972168 239.27104187 C-163.22306381 240.14182373 -162.35640594 241.01260559 -161.46348572 241.90977478 C-160.49076871 242.87187376 -159.51790927 243.83382876 -158.54492188 244.7956543 C-157.52951232 245.81021796 -156.51476225 246.82544203 -155.50062561 247.84127808 C-152.74086337 250.60190321 -149.97193026 253.35316304 -147.20130348 256.10287833 C-144.30915889 258.976305 -141.42547345 261.85819498 -138.54089355 264.73921204 C-133.07511237 270.19565838 -127.60172686 275.64441062 -122.12559271 281.09046441 C-115.8924879 287.29006997 -109.66787085 293.49816751 -103.44396496 299.70700586 C-90.63875549 312.48083371 -77.82288442 325.24391632 -65 338 C-63.00016466 337.20882096 -63.00016466 337.20882096 -61 336 C-60.505 334.515 -60.505 334.515 -60 333 C-58.6846659 332.29848848 -57.34882408 331.63474075 -56 331 C-54.2488427 329.5833253 -54.2488427 329.5833253 -53 328 C-53 327.34 -53 326.68 -53 326 C-51.68 325.34 -50.36 324.68 -49 324 C-48.68516592 320.96413387 -48.68516592 320.96413387 -50.60300255 319.02226734 C-51.35996233 318.2654753 -52.11692211 317.50868326 -52.89682007 316.72895813 C-53.76058762 315.85817627 -54.62435516 314.98739441 -55.51429749 314.09022522 C-56.48383251 313.12811847 -57.45351841 312.16616374 -58.42333984 311.2043457 C-59.43549147 310.18976711 -60.44699679 309.17454341 -61.457901 308.15872192 C-64.20930904 305.3978888 -66.9700685 302.64658415 -69.73283339 299.89712167 C-72.61813343 297.02311452 -75.49574044 294.14142332 -78.37442017 291.26078796 C-83.20991284 286.4244117 -88.05135989 281.59405984 -92.89648438 276.76733398 C-98.50482039 271.18017254 -104.10426887 265.5842261 -109.6989063 259.9833501 C-115.07307182 254.60349797 -120.45287748 249.22932223 -125.83549881 243.85793114 C-128.12988087 241.56820378 -130.42235522 239.27659081 -132.71335983 236.98348427 C-135.40912427 234.28584178 -138.1098061 231.59322166 -140.81443596 228.90446854 C-141.80867253 227.91448902 -142.80119932 226.9227891 -143.79192162 225.92929268 C-145.13973856 224.57827386 -146.49428445 223.23397782 -147.84921265 221.89009094 C-148.9857834 220.7565995 -148.9857834 220.7565995 -150.14531517 219.60020924 C-152.50371832 217.56539532 -153.22296952 217.34251267 -155.625 219.375 Z " fill="#ECBC56" transform="translate(361,0)"/>
<path d="M0 0 C6.29671422 3.64546613 10.25669741 9.1292571 12.5 16 C13.52913515 24.87222827 13.0486814 32.74403202 7.5 40 C1.70011527 45.61279168 -4.07911606 48.28314107 -12.1875 48.4375 C-19.92067973 48.2998413 -25.89547136 46.7246796 -31.375 41.0625 C-37.56741076 33.20290173 -38.52404309 25.88471072 -37.5 16 C-35.36807613 8.57297219 -31.1945133 3.75298473 -24.5 0 C-16.99776845 -3.63173353 -7.55303575 -3.4040237 0 0 Z " fill="#ECBC56" transform="translate(196.5,303)"/>
<path d="M0 0 C6.29671422 3.64546613 10.25669741 9.1292571 12.5 16 C13.52913515 24.87222827 13.0486814 32.74403202 7.5 40 C1.70011527 45.61279168 -4.07911606 48.28314107 -12.1875 48.4375 C-19.92067973 48.2998413 -25.89547136 46.7246796 -31.375 41.0625 C-37.56741076 33.20290173 -38.52404309 25.88471072 -37.5 16 C-35.36807613 8.57297219 -31.1945133 3.75298473 -24.5 0 C-16.99776845 -3.63173353 -7.55303575 -3.4040237 0 0 Z " fill="#ECBC56" transform="translate(336.5,163)"/>
<path d="M0 0 C6.29671422 3.64546613 10.25669741 9.1292571 12.5 16 C13.52913515 24.87222827 13.0486814 32.74403202 7.5 40 C1.70011527 45.61279168 -4.07911606 48.28314107 -12.1875 48.4375 C-19.92067973 48.2998413 -25.89547136 46.7246796 -31.375 41.0625 C-37.56741076 33.20290173 -38.52404309 25.88471072 -37.5 16 C-35.36807613 8.57297219 -31.1945133 3.75298473 -24.5 0 C-16.99776845 -3.63173353 -7.55303575 -3.4040237 0 0 Z " fill="#ECBC56" transform="translate(55.5,163)"/>
<path d="M0 0 C6.29671422 3.64546613 10.25669741 9.1292571 12.5 16 C13.52913515 24.87222827 13.0486814 32.74403202 7.5 40 C1.70011527 45.61279168 -4.07911606 48.28314107 -12.1875 48.4375 C-19.92067973 48.2998413 -25.89547136 46.7246796 -31.375 41.0625 C-37.56741076 33.20290173 -38.52404309 25.88471072 -37.5 16 C-35.36807613 8.57297219 -31.1945133 3.75298473 -24.5 0 C-16.99776845 -3.63173353 -7.55303575 -3.4040237 0 0 Z " fill="#ECBC56" transform="translate(196.5,21)"/>
</svg>
