<?xml version="1.0" encoding="UTF-8"?>
<svg version="1.1" xmlns="http://www.w3.org/2000/svg" width="380" height="380">
<path d="M0 0 C3.3 0 6.6 0 10 0 C10 15.84 10 31.68 10 48 C21.22 48 32.44 48 44 48 C44 81.99 44 115.98 44 151 C77.99 151 111.98 151 147 151 C147 162.22 147 173.44 147 185 C162.84 185 178.68 185 195 185 C195 188.3 195 191.6 195 195 C179.16 195 163.32 195 147 195 C147 206.22 147 217.44 147 229 C113.01 229 79.02 229 44 229 C44 263.32 44 297.64 44 333 C32.78 333 21.56 333 10 333 C10 348.51 10 364.02 10 380 C6.7 380 3.4 380 0 380 C0 364.49 0 348.98 0 333 C-11.22 333 -22.44 333 -34 333 C-34 298.68 -34 264.36 -34 229 C-68.32 229 -102.64 229 -138 229 C-138 217.78 -138 206.56 -138 195 C-153.51 195 -169.02 195 -185 195 C-185 191.7 -185 188.4 -185 185 C-169.49 185 -153.98 185 -138 185 C-138 173.78 -138 162.56 -138 151 C-103.68 151 -69.36 151 -34 151 C-34 117.01 -34 83.02 -34 48 C-22.78 48 -11.56 48 0 48 C0 32.16 0 16.32 0 0 Z M-24 58 C-24 88.69 -24 119.38 -24 151 C-16.08 151 -8.16 151 0 151 C0 120.31 0 89.62 0 58 C-7.92 58 -15.84 58 -24 58 Z M10 58 C10 88.69 10 119.38 10 151 C17.92 151 25.84 151 34 151 C34 120.31 34 89.62 34 58 C26.08 58 18.16 58 10 58 Z M-128 161 C-128 168.92 -128 176.84 -128 185 C-96.98 185 -65.96 185 -34 185 C-34 177.08 -34 169.16 -34 161 C-65.02 161 -96.04 161 -128 161 Z M-24 161 C-24 168.92 -24 176.84 -24 185 C-16.08 185 -8.16 185 0 185 C0 177.08 0 169.16 0 161 C-7.92 161 -15.84 161 -24 161 Z M10 161 C10 168.92 10 176.84 10 185 C17.92 185 25.84 185 34 185 C34 177.08 34 169.16 34 161 C26.08 161 18.16 161 10 161 Z M44 161 C44 168.92 44 176.84 44 185 C74.69 185 105.38 185 137 185 C137 177.08 137 169.16 137 161 C106.31 161 75.62 161 44 161 Z M-128 195 C-128 202.92 -128 210.84 -128 219 C-96.98 219 -65.96 219 -34 219 C-34 211.08 -34 203.16 -34 195 C-65.02 195 -96.04 195 -128 195 Z M-24 195 C-24 202.92 -24 210.84 -24 219 C-16.08 219 -8.16 219 0 219 C0 211.08 0 203.16 0 195 C-7.92 195 -15.84 195 -24 195 Z M10 195 C10 202.92 10 210.84 10 219 C17.92 219 25.84 219 34 219 C34 211.08 34 203.16 34 195 C26.08 195 18.16 195 10 195 Z M44 195 C44 202.92 44 210.84 44 219 C74.69 219 105.38 219 137 219 C137 211.08 137 203.16 137 195 C106.31 195 75.62 195 44 195 Z M-24 229 C-24 260.02 -24 291.04 -24 323 C-16.08 323 -8.16 323 0 323 C0 291.98 0 260.96 0 229 C-7.92 229 -15.84 229 -24 229 Z M10 229 C10 260.02 10 291.04 10 323 C17.92 323 25.84 323 34 323 C34 291.98 34 260.96 34 229 C26.08 229 18.16 229 10 229 Z " fill="#ECBC56" transform="translate(185,0)"/>
</svg>
